Coordinates
version=1
nRows=18
nColumns=22
inDegrees=yes

Units are S.I. units (second, meters, Newtons, ...)
If the header above contains a line with 'inDegrees', this indicates whether rotational values are in degrees (yes) or radians (no).

endheader
time	pelvis_tilt	pelvis_list	pelvis_rotation	pelvis_tx	pelvis_ty	pelvis_tz	hip_flexion_r	hip_adduction_r	hip_rotation_r	knee_angle_r	ankle_angle_r	subtalar_angle_r	hip_flexion_l	hip_adduction_l	hip_rotation_l	knee_angle_l	ankle_angle_l	subtalar_angle_l	lumbar_extension	lumbar_bending	lumbar_rotation
      1.31000000	     -1.41186572	     -1.35543466	      4.93075043	     -0.65755541	      1.07100846	      1.25475293	     -1.15821123	      4.13848164	     -5.04023141	    -13.44033227	     17.52754773	     -4.04940659	     27.68775358	     -1.21863602	      3.88473937	    -47.76808127	      7.54514775	      2.85036437	     -7.80487680	     -1.10222337	     -1.07317485
      1.32000000	     -1.45399928	     -1.20406978	      4.85980580	     -0.65408406	      1.07074306	      1.25512770	     -1.35176424	      4.00889191	     -4.97019134	    -13.39220755	     17.61481779	     -4.10236620	     27.88063204	     -1.20428798	      3.13684526	    -46.44623850	      7.98255433	      2.57758568	     -7.87604011	     -1.27135596	     -1.04227189
      1.33000000	     -1.50127636	     -1.05396684	      4.79879424	     -0.65042860	      1.07039468	      1.25540060	     -1.54467002	      3.87491763	     -4.92791554	    -13.35447936	     17.74593991	     -4.14406967	     28.03595233	     -1.17037991	      2.39911955	    -45.02510810	      8.38130222	      2.37014512	     -7.93604810	     -1.43539149	     -1.00204497
      1.34000000	     -1.51275669	     -0.89248725	      4.74644628	     -0.64659115	      1.07004484	      1.25554632	     -1.78519310	      3.72677771	     -4.87471595	    -13.32280314	     17.85978765	     -4.19011449	     28.10687261	     -1.10481010	      1.66522399	    -43.51133748	      8.72836586	      2.15727792	     -8.03755688	     -1.59916627	     -0.98219328
      1.35000000	     -1.57804987	     -0.73584590	      4.70533671	     -0.64259654	      1.06951346	      1.25557070	     -1.95749430	      3.57049561	     -4.86398878	    -13.33098707	     18.07006939	     -4.21972436	     28.21385963	     -1.01339409	      0.94467530	    -41.95467223	      9.07716958	      2.06790709	     -8.07035345	     -1.75819197	     -0.94566600
      1.36000000	     -1.62172865	     -0.56637689	      4.67786414	     -0.63841379	      1.06895548	      1.25546023	     -2.16780739	      3.39748935	     -4.85253301	    -13.33557355	     18.26427940	     -4.25148226	     28.26524507	     -0.88588828	      0.22454526	    -40.35014690	      9.41830414	      2.00074165	     -8.12652575	     -1.92106686	     -0.93351636
      1.37000000	     -1.66846602	     -0.39792220	      4.67044063	     -0.63406669	      1.06832794	      1.25521691	     -2.37964734	      3.22017108	     -4.86233613	    -13.35204293	     18.47515710	     -4.28047285	     28.29871799	     -0.72684553	     -0.47217253	    -38.72263216	      9.75706290	      1.98531822	     -8.17661807	     -2.07901219	     -0.93428040
      1.38000000	     -1.72779266	     -0.22439033	      4.68124681	     -0.62955558	      1.06761847	      1.25483574	     -2.58623069	      3.03014298	     -4.89595907	    -13.37341030	     18.69651270	     -4.30411520	     28.33015022	     -0.53374380	     -1.16056994	    -37.09249378	     10.11364245	      2.02592425	     -8.20929208	     -2.23794427	     -0.95225319
      1.39000000	     -1.77832511	     -0.03960852	      4.70733088	     -0.62488104	      1.06688603	      1.25434436	     -2.81421168	      2.82595210	     -4.93408158	    -13.39339250	     18.90141297	     -4.31863546	     28.33291422	     -0.30520954	     -1.84244813	    -35.46362700	     10.47825715	      2.13351461	     -8.25109719	     -2.40748451	     -0.99324528
      1.40000000	     -1.89853899	      0.14203755	      4.75739596	     -0.62007179	      1.06598182	      1.25370796	     -2.96120559	      2.61014640	     -5.03810335	    -13.44318380	     19.17533257	     -4.32841222	     28.41093913	     -0.04508567	     -2.50781379	    -33.87528238	     10.83057455	      2.26395844	     -8.20755829	     -2.57439914	     -1.03236204
      1.41000000	     -1.98564517	      0.34772052	      4.80996757	     -0.61510743	      1.06513216	      1.25298699	     -3.16016920	      2.37046649	     -5.11421730	    -13.48323714	     19.39690079	     -4.31624736	     28.42521878	      0.25526588	     -3.16226135	    -32.29491825	     11.16912845	      2.49720412	     -8.20647700	     -2.76642672	     -1.09172329
      1.42000000	     -2.13520663	      0.55835757	      4.88115301	     -0.61003707	      1.06415450	      1.25216504	     -3.28303246	      2.11559217	     -5.22796824	    -13.55801440	     19.65902198	     -4.30102956	     28.50209468	      0.58879836	     -3.78961464	    -30.76397449	     11.45234683	      2.72694953	     -8.13600647	     -2.97089621	     -1.16593511
      1.43000000	     -2.33562628	      0.76875715	      4.96645469	     -0.60487458	      1.06307558	      1.25124785	     -3.33596136	      1.85167350	     -5.37821498	    -13.67725610	     19.94169795	     -4.29890165	     28.62310060	      0.95220060	     -4.35665833	    -29.27981408	     11.69352181	      2.90377931	     -8.01170252	     -3.18113719	     -1.23846730
      1.44000000	     -2.48311039	      1.01518282	      5.03255611	     -0.59953336	      1.06211701	      1.25033641	     -3.48370973	      1.56035623	     -5.45812823	    -13.74895273	     20.18565859	     -4.25424200	     28.65351810	      1.33698489	     -4.94212629	    -27.82436850	     11.84039734	      3.26295907	     -7.95401560	     -3.44163026	     -1.30465161
      1.45000000	     -2.70946113	      1.24507975	      5.11509017	     -0.59413374	      1.06100668	      1.24933101	     -3.51819178	      1.27347291	     -5.58504799	    -13.88756956	     20.45532824	     -4.25152999	     28.76651387	      1.73433639	     -5.44292951	    -26.43828051	     11.91946205	      3.44796206	     -7.81217714	     -3.69103247	     -1.37321816
      1.46000000	     -2.91734936	      1.48833791	      5.17296705	     -0.58859705	      1.05994442	      1.24833339	     -3.58620912	      0.97579207	     -5.65387115	    -14.01841629	     20.69437816	     -4.23765393	     28.83254076	      2.13369057	     -5.91629049	    -25.09729063	     11.93781980	      3.65890494	     -7.69891076	     -3.96633676	     -1.41970781
      1.47000000	     -3.06180118	      1.73619087	      5.19510313	     -0.58290303	      1.05899088	      1.24734379	     -3.73941399	      0.67837736	     -5.66125993	    -14.13320227	     20.90473972	     -4.19865815	     28.80370651	      2.51506849	     -6.36889609	    -23.80815094	     11.93191639	      3.89558693	     -7.66413808	     -4.24979818	     -1.42773814
      1.48000000	     -3.27116895	      1.95901582	      5.21542088	     -0.57711768	      1.05790785	      1.24631748	     -3.80716087	      0.39621066	     -5.68218279	    -14.29048705	     21.10664964	     -4.19586547	     28.84644472	      2.87479879	     -6.76347191	    -22.61252490	     11.86204857	      3.96733617	     -7.55854394	     -4.51955196	     -1.43588049
